<?xml version="1.0" encoding="UTF-8"?> <svg xmlns="http://www.w3.org/2000/svg" id="Layer_1" version="1.1" viewBox="0 0 216 363.4"><defs><style> .st0 { fill: #a4daf6; } .st1 { fill: #005687; } .st2 { fill: #0084ad; } .st3 { fill: #00b1e1; } </style></defs><g><g><path class="st3" d="M195.3,313.3c-55.8-4-100-50.7-100-107.5v-108.2h-25.3v120.6c0,54.2,43.9,98.2,98.2,98.2h5.1c8.1,0,16-1,23.5-2.9h-1.4c0-.1,0,0,0,0Z"></path><path class="st2" d="M133.1,335.6h5c15.4,0,43-9.9,43-9.9,0,0-5.2.3-7.9.3h-5.1c-59.5,0-107.8-48.4-107.8-107.8v-120.6h-25.4v139.9c0,54.1,44,98.2,98.2,98.2h0Z"></path><path class="st1" d="M138.1,345.3h-5c-59.5,0-107.9-48.4-107.9-107.9V97.6H0v162.8C0,317.1,46.3,363.4,103,363.4h5c1.6,0,3.2,0,4.7-.1.9,0,1.7,0,2.6-.1.5,0,.9,0,1.4-.1,23.2-1.8,61.2-25.4,61.2-25.4,0,0-25.8,7.7-39.8,7.7h0Z"></path></g><path class="st0" d="M105.1,97.6v108.2c0,54.1,44,98.2,98.2,98.2h1.3c7.3-14.6,11.5-31,11.5-48.4V97.6h-9.7v158c0,14.2-3.1,27.8-8.6,40-39.2-14.6-67.4-52.4-67.4-96.6v-101.4h-25.3Z"></path></g><g><path class="st1" d="M21.2,0v44.4c0,4.1,1,7.3,2.9,9.6,1.9,2.2,4.8,3.4,8.7,3.4s6.9-1.1,8.9-3.4c2-2.3,3-5.4,3-9.5V0h21.3v44.4c0,7-1.5,13-4.4,18-3,5-7,8.7-12.1,11.2s-10.8,3.7-17,3.7-11.8-1.2-16.7-3.7-8.7-6.2-11.5-11.1C1.4,57.5,0,51.5,0,44.4V0h21.2,0Z"></path><path class="st1" d="M149.1,76.6h-21.3l-28.4-42.8v42.8h-21.3V0h21.3l28.4,43.3V0h21.3v76.6Z"></path><path class="st1" d="M216,0v16.9h-30.6v13.5h22.6v16.2h-22.6v30h-21.3V0h51.9Z"></path></g></svg> 