<svg width="235" height="42" viewBox="0 0 235 42" fill="none" xmlns="http://www.w3.org/2000/svg">
<g clip-path="url(#clip0_389_7102)">
<path d="M35.3253 21.0459C34.6369 21.1838 31.7718 21.735 28.2053 22.2206C28.1266 22.2338 28.0545 22.1681 28.0545 22.0894V18.1519C28.0545 18.0863 28.1004 18.0338 28.1659 18.0206C31.844 17.5219 34.7877 16.9444 35.3712 16.8263C35.4302 16.8131 35.4761 16.7606 35.4761 16.695V12.7772C35.4761 12.6919 35.404 12.6328 35.3187 12.6459C34.6303 12.7838 31.7653 13.335 28.1987 13.8206C28.12 13.8338 28.0479 13.7681 28.0479 13.6894V12.3703C28.0479 12.285 27.9693 12.2194 27.884 12.2456C24.3765 13.1447 22.1605 12.3834 18.4103 14.1488C18.3776 14.1684 18.3317 14.1684 18.2989 14.1488C14.5487 12.3834 12.3327 13.1447 8.82518 12.2456C8.73995 12.2259 8.66128 12.285 8.66128 12.3703V13.6894C8.66128 13.7681 8.58916 13.8272 8.51049 13.8206C4.94392 13.335 2.07887 12.7772 1.39047 12.6459C1.31179 12.6328 1.23312 12.6919 1.23312 12.7772V16.695C1.23312 16.7606 1.27901 16.8131 1.33802 16.8263C1.92152 16.9444 4.86525 17.5153 8.54327 18.0141C8.60883 18.0206 8.65472 18.0797 8.65472 18.1453V22.0828C8.65472 22.1616 8.58261 22.2206 8.50393 22.2141C4.93737 21.7284 2.07231 21.1706 1.38391 21.0394C1.30524 21.0263 1.22656 21.0853 1.22656 21.1706V25.0884C1.22656 25.1541 1.27246 25.2066 1.33802 25.2197C2.18377 25.3903 7.9401 26.5059 13.7095 26.985C15.4469 27.1753 16.3386 27.3591 17.5187 28.0875L18.2792 28.5534C18.3185 28.5797 18.3776 28.5797 18.4169 28.5534L19.1774 28.0875C20.351 27.3656 21.236 27.1819 22.9472 26.9916C28.8675 26.5125 34.7615 25.3444 35.4105 25.2131C35.4433 25.2066 35.4695 25.1738 35.4695 25.1409V21.1706C35.4695 21.0853 35.3974 21.0263 35.3122 21.0394L35.3253 21.0459ZM26.481 14.2341V24.8916C26.481 24.9572 26.4285 25.0163 26.363 25.0228C22.1146 25.5741 20.587 25.3969 18.43 26.7028C18.3907 26.7291 18.3382 26.7291 18.2923 26.7028C16.1353 25.3903 14.6077 25.5675 10.3593 25.0228C10.2938 25.0163 10.2413 24.9572 10.2413 24.8916V14.2341C10.2413 14.1553 10.3134 14.0897 10.3921 14.1028C12.6671 14.4506 15.4142 14.1225 18.2923 15.8288C18.3317 15.855 18.3841 15.855 18.4234 15.8288C21.3082 14.1225 24.0552 14.4506 26.3237 14.1028C26.4023 14.0897 26.4744 14.1488 26.4744 14.2341H26.481Z" fill="#BA0C2F"/>
<path d="M17.6616 7.52717L18.2385 5.81436C18.2778 5.69624 18.4483 5.69624 18.4876 5.81436L19.0646 7.52717C19.0843 7.57967 19.1302 7.61905 19.1892 7.61905L20.9921 7.63217C21.1167 7.63217 21.1691 7.79624 21.0708 7.86842L19.6219 8.94467C19.576 8.97749 19.5563 9.03655 19.576 9.08905L20.1201 10.815C20.1595 10.9331 20.0218 11.0315 19.9169 10.9594L18.4483 9.90936C18.4024 9.87655 18.3434 9.87655 18.2975 9.90936L16.8289 10.9594C16.724 11.0315 16.5929 10.9331 16.6257 10.815L17.1633 9.08905C17.183 9.03655 17.1633 8.97749 17.1174 8.94467L15.6685 7.86842C15.5701 7.79624 15.6226 7.63217 15.7472 7.63217L17.5501 7.61905C17.6091 7.61905 17.655 7.57967 17.6747 7.52717H17.6616ZM6.33903 6.5428L6.92908 4.83655C6.96842 4.71842 7.13888 4.71842 7.17822 4.83655L7.76828 6.5428C7.78795 6.5953 7.83384 6.62811 7.89284 6.62811L9.6958 6.66749C9.82036 6.66749 9.87281 6.83155 9.77447 6.90374L8.33867 7.99311C8.29277 8.02592 8.27966 8.08499 8.29277 8.13749L8.81727 9.86342C8.85005 9.98155 8.71892 10.08 8.61403 10.0078L7.13233 8.97749C7.08643 8.94467 7.02743 8.94467 6.98153 8.97749L5.49984 10.0078C5.39494 10.08 5.26381 9.98155 5.29659 9.86342L5.82109 8.13749C5.8342 8.08499 5.82109 8.02592 5.7752 7.99311L4.33939 6.90374C4.24105 6.83155 4.2935 6.66749 4.41806 6.66749L6.22102 6.62811C6.27347 6.62811 6.32592 6.58874 6.34558 6.5428H6.33903ZM28.9579 6.5428L29.5479 4.83655C29.5873 4.71842 29.7577 4.71842 29.7971 4.83655L30.3871 6.5428C30.4068 6.5953 30.4527 6.62811 30.5117 6.62811L32.3146 6.66749C32.4392 6.66749 32.4917 6.83155 32.3933 6.90374L30.9575 7.99311C30.9116 8.02592 30.8985 8.08499 30.9116 8.13749L31.4361 9.86342C31.4689 9.98155 31.3378 10.08 31.2329 10.0078L29.7512 8.97749C29.7053 8.94467 29.6463 8.94467 29.6004 8.97749L28.1187 10.0078C28.0138 10.08 27.8827 9.98155 27.9154 9.86342L28.4399 8.13749C28.453 8.08499 28.4399 8.02592 28.394 7.99311L26.9582 6.90374C26.8599 6.83155 26.9123 6.66749 27.0369 6.66749L28.8399 6.62811C28.8923 6.62811 28.9448 6.58874 28.9644 6.5428H28.9579ZM17.0453 32.6681C17.0453 33.7903 17.5436 34.6565 17.8648 35.5031C17.8779 35.5359 17.832 35.5556 17.8189 35.5294C17.8189 35.5294 17.0453 33.7444 15.8258 33.7444C15.0063 33.7444 14.5277 34.3678 14.5277 34.919C14.5277 35.3719 14.8358 35.6606 15.1178 35.6737C15.4193 35.6934 15.675 35.4637 15.7013 35.175C15.7013 35.1356 15.7275 35.0962 15.7668 35.0765C15.8783 35.0175 16.1471 34.9453 16.6519 35.175C17.36 35.4965 18.0222 36.5597 18.0222 36.5597C18.0484 36.6056 18.0353 36.6581 18.0025 36.6909L17.7927 36.9075C17.6222 37.0781 17.6288 37.3472 17.7927 37.5178L18.2713 38.0034C18.3237 38.0559 18.409 38.0559 18.4614 38.0034L18.94 37.5178C19.1039 37.3472 19.117 37.0847 18.94 36.9075L18.7302 36.6909C18.6974 36.6581 18.6909 36.599 18.7106 36.5597C18.7106 36.5597 19.3727 35.4965 20.0808 35.175C20.5856 34.9453 20.8544 35.0175 20.9659 35.0765C21.0052 35.0962 21.0314 35.1356 21.0314 35.175C21.0577 35.4637 21.3134 35.6934 21.6149 35.6737C21.8969 35.654 22.205 35.3719 22.205 34.919C22.205 34.3678 21.7264 33.7444 20.9069 33.7444C19.6809 33.7444 18.9138 35.5294 18.9138 35.5294C18.8941 35.5556 18.8548 35.5359 18.8679 35.5031C19.1892 34.65 19.6874 33.7378 19.6874 32.6681C19.6874 31.769 18.7564 30.7847 18.4614 30.4894C18.409 30.4369 18.3303 30.4369 18.2778 30.4894C17.9763 30.7715 17.0518 31.7231 17.0518 32.6681H17.0453ZM28.6366 29.6625C28.6366 30.5419 29.03 31.2244 29.2791 31.8937C29.2857 31.92 29.2529 31.9331 29.2398 31.9134C29.2398 31.9134 28.6366 30.5091 27.6729 30.5091C27.0304 30.5091 26.6501 31.0012 26.6501 31.4278C26.6501 31.7822 26.8927 32.0119 27.1156 32.025C27.3516 32.0381 27.5483 31.8675 27.5745 31.6444C27.5745 31.5984 27.6073 31.5656 27.6466 31.5459C27.745 31.5 27.9548 31.4672 28.3219 31.6312C28.8792 31.8806 29.3971 32.7206 29.3971 32.7206C29.4168 32.7534 29.4103 32.7994 29.384 32.8256L29.2201 32.9962C29.089 33.1275 29.089 33.344 29.2201 33.4753L29.5742 33.8362C29.6266 33.8887 29.7118 33.8887 29.7643 33.8362L30.1183 33.4753C30.2494 33.344 30.2626 33.134 30.1183 32.9962L29.9544 32.8256C29.9544 32.8256 29.9216 32.7534 29.9413 32.7206C29.9413 32.7206 30.4592 31.8872 31.0165 31.6312C31.3837 31.4606 31.5935 31.5 31.6918 31.5459C31.7311 31.5656 31.7639 31.5984 31.7639 31.6444C31.7901 31.8675 31.9868 32.0381 32.2229 32.025C32.4458 32.0119 32.6883 31.7887 32.6883 31.4278C32.6883 30.9947 32.3081 30.5091 31.6656 30.5091C30.7018 30.5091 30.0987 31.9134 30.0987 31.9134C30.0855 31.9331 30.0528 31.9134 30.0593 31.8937C30.315 31.2244 30.7018 30.509 30.7018 29.6625C30.7018 28.9734 30.0069 28.2253 29.7577 27.9759C29.7053 27.9234 29.6266 27.9234 29.5742 27.9759C29.3185 28.2187 28.6301 28.9472 28.6301 29.669L28.6366 29.6625ZM6.01778 29.6625C6.01778 30.5419 6.41115 31.2244 6.66028 31.8937C6.66684 31.92 6.63406 31.9331 6.62094 31.9134C6.62094 31.9134 6.01777 30.5091 5.05402 30.5091C4.41151 30.5091 4.03125 31.0012 4.03125 31.4278C4.03125 31.7822 4.27383 32.0119 4.49674 32.025C4.73276 32.0381 4.92945 31.8675 4.95567 31.6444C4.95567 31.5984 4.98845 31.5656 5.02779 31.5459C5.12613 31.5 5.33593 31.4672 5.70308 31.6312C6.26035 31.8806 6.77829 32.7206 6.77829 32.7206C6.79796 32.7534 6.7914 32.7994 6.76518 32.8256L6.60128 32.9962C6.47015 33.1275 6.47015 33.344 6.60128 33.4753L6.95531 33.8362C7.00776 33.8887 7.09299 33.8887 7.14544 33.8362L7.49947 33.4753C7.6306 33.344 7.64371 33.134 7.49947 32.9962L7.33557 32.8256C7.33557 32.8256 7.30279 32.7534 7.32246 32.7206C7.32246 32.7206 7.8404 31.8872 8.39767 31.6312C8.76482 31.4606 8.97462 31.5 9.07296 31.5459C9.1123 31.5656 9.14508 31.5984 9.14508 31.6444C9.1713 31.8675 9.36799 32.0381 9.60401 32.025C9.82692 32.0119 10.0695 31.7887 10.0695 31.4278C10.0695 30.9947 9.68924 30.5091 9.04673 30.5091C8.08297 30.5091 7.4798 31.9134 7.4798 31.9134C7.46669 31.9331 7.43391 31.9134 7.44047 31.8937C7.69616 31.2244 8.08297 30.509 8.08297 29.6625C8.08297 28.9734 7.38802 28.2253 7.13888 27.9759C7.08643 27.9234 7.00776 27.9234 6.95531 27.9759C6.69962 28.2187 6.01122 28.9472 6.01122 29.669L6.01778 29.6625Z" fill="#215732"/>
<path d="M36.7147 0.150764C36.7147 0.065452 36.636 0.00638947 36.5573 0.0195145C35.2788 0.288577 26.5853 2.06045 18.3639 2.06045C9.66382 2.06701 1.40958 0.282014 0.163905 -0.000173025C0.0786743 -0.013298 0 0.0457645 0 0.131077C0 2.35576 0.0131124 26.4795 0.0131124 31.0273C0.0131124 35.5751 4.51066 37.0123 18.318 41.9933C18.3442 42.0064 18.3836 42.0064 18.4098 41.9933C32.2171 37.0189 36.7147 35.7917 36.7147 31.0273V0.150764ZM35.1543 30.3908C35.1543 34.7483 31.037 35.8639 18.4098 40.4117C18.3836 40.4248 18.3442 40.4248 18.318 40.4117C5.69733 35.8639 1.57349 34.7417 1.57349 30.3908V2.11295C1.57349 2.02764 1.6456 1.96858 1.73083 1.9817C3.00273 2.23108 11.6766 3.87826 18.3639 3.87826C24.6709 3.87826 33.6988 2.23764 34.9969 2.00139C35.0822 1.98826 35.1543 2.04733 35.1543 2.13264V30.3908Z" fill="#215732"/>
<path d="M96.6709 31.7691C96.6709 29.4 96.6906 23.2313 96.6906 22.0631C96.6906 19.5103 96.848 14.2275 88.5216 14.2275C85.6959 14.2275 82.4965 15.2513 80.8836 17.4431C79.2774 19.635 80.169 22.1813 81.8998 22.1813C83.6307 22.1813 84.5026 20.8753 84.5026 19.6875C84.5026 18.4997 85.1386 16.3341 87.8988 16.3341C89.5509 16.3341 91.7341 17.535 91.7341 19.4447C91.7341 19.8319 91.7472 21.8138 91.7472 21.8138C91.7472 21.8138 84.6469 23.6053 82.5686 24.7275C80.4903 25.8497 78.8447 27.5362 78.8447 30.8044C78.8447 34.0725 80.9426 36.7566 84.8698 36.7566C88.797 36.7566 91.8062 34.4991 91.8062 34.4991C92.0029 35.3194 92.6782 36.2841 94.7172 36.3956H98.5788V34.755C97.143 34.755 96.6709 34.4334 96.6709 31.7822V31.7691ZM91.7407 32.1825C91.7407 32.1825 90.023 33.4031 87.4792 33.4031C84.9354 33.4031 83.8142 31.9463 83.8142 30.1875C83.8142 27.7922 85.6369 26.4863 86.9809 25.8038C88.1938 25.1869 91.7341 24.1238 91.7341 24.1238V32.1891L91.7407 32.1825ZM119.087 30.0562C119.087 34.2497 114.799 36.7303 110.8 36.7303C106.8 36.7303 104.696 35.8378 104.047 35.8378C103.398 35.8378 103.306 36.3825 103.306 36.3825H101.667V28.5928H103.306C103.863 30.2925 105.581 34.7878 110.373 34.7878C112.668 34.7878 114.628 33.8953 114.628 31.9463C114.628 29.4131 111.842 28.6125 109.147 27.4116C106.459 26.2172 101.647 24.7209 101.647 20.58C101.647 16.4391 106.295 14.2209 110.347 14.2209C113.232 14.2209 115.454 15.1266 115.645 15.1266C115.835 15.1266 115.92 14.9822 115.92 14.9822H117.441V21.0525H115.795C115.599 20.6588 114.156 16.1241 110.144 16.1241C108.492 16.1241 106.518 16.9509 106.518 18.8016C106.518 20.9606 109.501 22.0434 112.373 23.2706C115.245 24.4913 119.08 26.3091 119.08 30.0497L119.087 30.0562ZM83.9191 5.25C80.7918 5.73563 78.2153 5.7225 75.1011 5.25V6.91031H76.1501C77.0614 6.91031 78.6349 6.71344 77.6777 9.73875C76.8516 12.3375 72.1049 27.6281 72.1049 27.6281C72.1049 27.6281 67.0829 11.8388 66.3092 9.31219C65.5356 6.79219 67.8696 6.90375 68.5318 6.90375V5.24344C64.4669 5.87344 61.1167 5.85375 57.0716 5.24344C57.0716 5.24344 57.0716 6.89719 57.0716 6.90375C57.878 6.90375 59.5695 6.53625 60.7693 10.2309C62.0018 14.0438 62.7558 16.3538 62.7558 16.3538L57.9763 28.6125C57.9763 28.6125 52.4167 13.335 51.4398 10.5722C50.5613 8.085 51.4857 6.91031 52.3642 6.91031C52.5937 6.91031 53.4394 6.91031 53.4394 6.91031V5.25C49.3746 5.88 46.0244 5.86031 41.9727 5.25V6.91031C43.533 6.78563 44.5558 7.19906 45.6048 10.1259C46.6603 13.0528 55.0981 36.75 55.0981 36.75H57.2092L63.8375 19.6678L69.4234 36.75H71.6394C71.6394 36.75 79.5658 11.1563 80.1362 9.45656C80.7066 7.75688 81.7163 6.91031 83.0603 6.91031H83.9323V5.25H83.9191ZM128.055 17.0822C129.793 15.4088 132.022 14.2013 134.9 14.2013C139.909 14.2013 141.974 17.43 141.974 20.8556C141.974 25.4953 141.955 31.5197 141.974 31.5459V31.5591C141.974 32.9963 142.204 33.9872 142.604 34.3809C143.004 34.7747 143.344 34.7484 144.38 34.7484V36.3891H134.664V34.7484C135.392 34.7484 135.969 34.8403 136.428 34.3809C136.887 33.9216 137.057 32.9897 137.057 31.5525C137.057 31.5525 137.031 23.7694 137.031 20.9213C137.031 18.4013 135.385 17.1216 133.641 17.1216C130.167 17.1216 128.534 19.6481 128.069 20.3503L128.055 31.5525C128.055 32.9897 128.239 33.9347 128.685 34.3809C129.131 34.8272 129.596 34.755 130.455 34.755V36.3956H120.739V34.755C121.427 34.755 122.05 34.8469 122.509 34.3875C122.968 33.9281 123.138 32.9963 123.138 31.5591V10.5066C123.138 6.96938 122.699 6.8775 120.64 6.8775V5.25C123.263 5.65688 125.439 5.67 128.075 5.25L128.062 17.0822H128.055ZM173.083 5.25C169.976 5.74219 167.419 5.72906 164.324 5.25V6.89063C165.655 6.89063 167.602 6.39844 167.602 10.5394C167.602 11.3663 167.602 25.8169 167.602 25.8169C167.602 30.9028 164.416 34.3088 159.25 34.3088C151.553 34.3088 151.579 27.2409 151.579 23.1919C151.579 19.1428 151.579 10.7559 151.579 10.5394C151.579 6.54938 152.72 6.89063 154.313 6.89063V5.25C150.458 5.86688 147.291 5.84719 143.456 5.25V6.89063C145.049 6.89063 146.183 6.51 146.183 10.5459C146.183 10.7231 146.216 20.1403 146.216 23.1984C146.216 32.4516 149.789 36.6909 159.25 36.6909C164.128 36.6909 169.969 33.9281 169.969 25.2459C169.969 23.6578 169.989 14.4638 169.989 10.5525C169.989 6.64125 171.51 6.90375 173.083 6.90375V5.26313V5.25Z" fill="black"/>
<path d="M182.695 36.3759V13.4466H185.403V33.8953H194.247L194.09 36.3825H182.695V36.3759Z" fill="#BA0C2F"/>
<path d="M206.862 36.5072C206.547 35.3719 206.39 34.5516 206.298 33.8297C205.164 35.6541 203.341 36.6647 200.948 36.6647C198.024 36.6647 195.723 35.28 195.723 32.0316C195.723 28.7831 198.489 27.2147 202.397 27.2147C203.466 27.2147 204.882 27.2803 206.081 27.4378V26.5584C206.081 23.5659 204.541 22.4306 202.338 22.4306C200.64 22.4306 199.283 23.2837 198.811 24.1303L196.673 23.0278C197.46 21.5775 199.728 20.2256 202.528 20.2256C206.239 20.2256 208.632 22.0237 208.632 26.7487V31.7231C208.632 33.1406 208.756 34.2103 209.294 36.1987L206.868 36.5137L206.862 36.5072ZM206.075 29.4131C204.908 29.3212 203.525 29.2228 202.521 29.2228C200.253 29.2228 198.24 29.9775 198.24 31.8675C198.24 33.9478 199.656 34.7025 201.387 34.7025C203.525 34.7025 205.229 33.4753 205.793 31.5525C205.983 30.9553 206.075 30.4172 206.075 29.4131Z" fill="#BA0C2F"/>
<path d="M211.043 20.5341H213.783L218.032 34.4269L221.808 20.5341H224.293L228.069 34.4269L232.285 20.5341H234.993L229.708 36.3825H226.594L223.008 23.7169L219.455 36.3825H216.308L211.05 20.5341H211.043Z" fill="#BA0C2F"/>
</g>
<defs>
<clipPath id="clip0_389_7102">
<rect width="235" height="42" fill="white"/>
</clipPath>
</defs>
</svg>
